<svg xmlns="http://www.w3.org/2000/svg" width="1440" height="980" viewBox="0 0 1440 980" role="img" aria-labelledby="title desc">
  <title id="title">Admin overview portal preview</title>
  <desc id="desc">Synthetic render of the platform admin overview page using SPA copy and test fixtures.</desc>
  <rect width="1440" height="980" fill="#f3f4f6"/>
  <rect x="0" y="0" width="1440" height="90" fill="#ffffff" stroke="#d1d5db"/>
  <text x="52" y="56" fill="#111827" font-family="Arial, sans-serif" font-size="34" font-weight="700">Platform Admin</text>
  <text x="52" y="82" fill="#6b7280" font-family="Arial, sans-serif" font-size="18">Global platform health and tenant management.</text>
  <rect x="1228" y="26" width="152" height="38" rx="10" fill="#ffffff" stroke="#9ca3af"/>
  <text x="1262" y="51" fill="#374151" font-family="Arial, sans-serif" font-size="18" font-weight="700">Refresh Data</text>
  <rect x="40" y="118" width="1360" height="74" rx="16" fill="#e0f2fe" stroke="#7dd3fc"/>
  <text x="68" y="161" fill="#0f172a" font-family="Arial, sans-serif" font-size="22" font-weight="700">Operations / overview</text>
  <text x="338" y="161" fill="#0f172a" font-family="Arial, sans-serif" font-size="20">Platform health and cross-region runtime posture are in view.</text>
  <rect x="40" y="222" width="420" height="154" rx="18" fill="#ffffff" stroke="#d1d5db"/>
  <text x="72" y="266" fill="#6b7280" font-family="Arial, sans-serif" font-size="18" font-weight="700">PLATFORM HEALTH</text>
  <circle cx="88" cy="316" r="10" fill="#4ade80"/>
  <text x="112" y="326" fill="#111827" font-family="Arial, sans-serif" font-size="42" font-weight="700">OK</text>
  <rect x="510" y="222" width="420" height="154" rx="18" fill="#ffffff" stroke="#d1d5db"/>
  <text x="542" y="266" fill="#6b7280" font-family="Arial, sans-serif" font-size="18" font-weight="700">ERROR RATE (5M)</text>
  <text x="542" y="326" fill="#111827" font-family="Arial, sans-serif" font-size="48" font-weight="700">1.2%</text>
  <text x="710" y="326" fill="#6b7280" font-family="Arial, sans-serif" font-size="18">threshold 5%</text>
  <rect x="980" y="222" width="420" height="154" rx="18" fill="#ffffff" stroke="#d1d5db"/>
  <text x="1012" y="266" fill="#6b7280" font-family="Arial, sans-serif" font-size="18" font-weight="700">TOTAL TENANTS</text>
  <text x="1012" y="326" fill="#111827" font-family="Arial, sans-serif" font-size="48" font-weight="700">2</text>
  <rect x="40" y="412" width="650" height="240" rx="18" fill="#ffffff" stroke="#d1d5db"/>
  <rect x="40" y="412" width="650" height="70" rx="18" fill="#f9fafb" stroke="#d1d5db"/>
  <text x="72" y="456" fill="#111827" font-family="Arial, sans-serif" font-size="24" font-weight="700">Top Tenants (Token Volume)</text>
  <text x="72" y="530" fill="#111827" font-family="Arial, sans-serif" font-size="20" font-family="monospace">t-001</text>
  <text x="560" y="530" fill="#6b7280" font-family="Arial, sans-serif" font-size="20">990,000 tokens</text>
  <line x1="72" y1="552" x2="658" y2="552" stroke="#e5e7eb"/>
  <text x="72" y="600" fill="#111827" font-family="Arial, sans-serif" font-size="20" font-family="monospace">t-002</text>
  <text x="570" y="600" fill="#6b7280" font-family="Arial, sans-serif" font-size="20">980,000 tokens</text>
  <rect x="750" y="412" width="650" height="240" rx="18" fill="#ffffff" stroke="#d1d5db"/>
  <rect x="750" y="412" width="650" height="70" rx="18" fill="#f9fafb" stroke="#d1d5db"/>
  <text x="782" y="456" fill="#111827" font-family="Arial, sans-serif" font-size="24" font-weight="700">Quota Headroom</text>
  <text x="782" y="530" fill="#111827" font-family="Arial, sans-serif" font-size="20">eu-west-1 - ConcurrentSessions</text>
  <rect x="782" y="548" width="540" height="18" rx="9" fill="#dbeafe"/>
  <rect x="782" y="548" width="108" height="18" rx="9" fill="#2563eb"/>
  <text x="782" y="600" fill="#6b7280" font-family="Arial, sans-serif" font-size="18">5 / 25 sessions</text>
  <text x="782" y="642" fill="#111827" font-family="Arial, sans-serif" font-size="20">eu-central-1 - ConcurrentSessions</text>
  <rect x="782" y="660" width="540" height="18" rx="9" fill="#fee2e2"/>
  <rect x="782" y="660" width="496" height="18" rx="9" fill="#dc2626"/>
  <text x="782" y="712" fill="#6b7280" font-family="Arial, sans-serif" font-size="18">23 / 25 sessions</text>
  <rect x="40" y="692" width="1360" height="230" rx="18" fill="#ffffff" stroke="#d1d5db"/>
  <rect x="40" y="692" width="1360" height="70" rx="18" fill="#f9fafb" stroke="#d1d5db"/>
  <text x="72" y="736" fill="#111827" font-family="Arial, sans-serif" font-size="24" font-weight="700">Tenant Portfolio Snapshot</text>
  <text x="72" y="806" fill="#111827" font-family="Arial, sans-serif" font-size="20">Acme</text>
  <text x="310" y="806" fill="#6b7280" font-family="Arial, sans-serif" font-size="20">premium</text>
  <text x="460" y="806" fill="#15803d" font-family="Arial, sans-serif" font-size="20">active</text>
  <text x="640" y="806" fill="#6b7280" font-family="Arial, sans-serif" font-size="20">runtime eu-west-1</text>
  <line x1="72" y1="828" x2="1368" y2="828" stroke="#e5e7eb"/>
  <text x="72" y="874" fill="#111827" font-family="Arial, sans-serif" font-size="20">Beta</text>
  <text x="310" y="874" fill="#6b7280" font-family="Arial, sans-serif" font-size="20">basic</text>
  <text x="460" y="874" fill="#b91c1c" font-family="Arial, sans-serif" font-size="20">suspended</text>
  <text x="640" y="874" fill="#6b7280" font-family="Arial, sans-serif" font-size="20">runtime eu-west-1</text>
</svg>
