<svg xmlns="http://www.w3.org/2000/svg" width="1440" height="980" viewBox="0 0 1440 980" role="img" aria-labelledby="title desc">
  <title id="title">Tenant webhooks page preview</title>
  <desc id="desc">Synthetic render of the tenant webhooks page using SPA structure and sample webhook rows.</desc>
  <rect width="1440" height="980" fill="#f3f4f6"/>
  <text x="48" y="70" fill="#111827" font-family="Arial, sans-serif" font-size="34" font-weight="700">Webhooks</text>
  <text x="48" y="102" fill="#6b7280" font-family="Arial, sans-serif" font-size="18">Manage async job completion callbacks</text>
  <rect x="40" y="148" width="900" height="760" rx="18" fill="#ffffff" stroke="#d1d5db"/>
  <rect x="72" y="190" width="836" height="180" rx="16" fill="#ffffff" stroke="#d1d5db"/>
  <text x="104" y="234" fill="#111827" font-family="Arial, sans-serif" font-size="24" font-weight="700">Production events</text>
  <rect x="334" y="204" width="86" height="32" rx="16" fill="#dcfce7"/>
  <text x="356" y="226" fill="#15803d" font-family="Arial, sans-serif" font-size="16" font-weight="700">ACTIVE</text>
  <text x="104" y="274" fill="#4b5563" font-family="Arial, sans-serif" font-size="18">https://api.example.test/hooks/platform</text>
  <rect x="104" y="300" width="126" height="28" rx="14" fill="#f3f4f6"/>
  <text x="126" y="319" fill="#4b5563" font-family="Arial, sans-serif" font-size="16">job.completed</text>
  <rect x="246" y="300" width="100" height="28" rx="14" fill="#f3f4f6"/>
  <text x="268" y="319" fill="#4b5563" font-family="Arial, sans-serif" font-size="16">job.failed</text>
  <text x="104" y="352" fill="#9ca3af" font-family="Arial, sans-serif" font-size="16">Registered on 2026-03-01 09:00</text>
  <text x="812" y="234" fill="#dc2626" font-family="Arial, sans-serif" font-size="18" font-weight="700">Delete</text>
  <rect x="72" y="394" width="836" height="180" rx="16" fill="#ffffff" stroke="#d1d5db"/>
  <text x="104" y="438" fill="#111827" font-family="Arial, sans-serif" font-size="24" font-weight="700">Untitled Webhook</text>
  <rect x="320" y="408" width="86" height="32" rx="16" fill="#dcfce7"/>
  <text x="342" y="430" fill="#15803d" font-family="Arial, sans-serif" font-size="16" font-weight="700">ACTIVE</text>
  <text x="104" y="478" fill="#4b5563" font-family="Arial, sans-serif" font-size="18">https://example.invalid/audit/fanout</text>
  <rect x="104" y="504" width="126" height="28" rx="14" fill="#f3f4f6"/>
  <text x="126" y="523" fill="#4b5563" font-family="Arial, sans-serif" font-size="16">job.completed</text>
  <text x="104" y="556" fill="#9ca3af" font-family="Arial, sans-serif" font-size="16">Registered on 2026-03-03 15:12</text>
  <text x="812" y="438" fill="#dc2626" font-family="Arial, sans-serif" font-size="18" font-weight="700">Delete</text>
  <rect x="980" y="148" width="420" height="556" rx="18" fill="#ffffff" stroke="#d1d5db"/>
  <rect x="980" y="148" width="420" height="72" rx="18" fill="#f9fafb" stroke="#d1d5db"/>
  <text x="1012" y="192" fill="#111827" font-family="Arial, sans-serif" font-size="24" font-weight="700">Register Webhook</text>
  <text x="1012" y="270" fill="#374151" font-family="Arial, sans-serif" font-size="18" font-weight="700">Callback URL</text>
  <rect x="1012" y="286" width="356" height="52" rx="10" fill="#ffffff" stroke="#cbd5e1"/>
  <text x="1030" y="318" fill="#9ca3af" font-family="Arial, sans-serif" font-size="18">https://your-api.com/webhooks</text>
  <text x="1012" y="392" fill="#374151" font-family="Arial, sans-serif" font-size="18" font-weight="700">Description (Optional)</text>
  <rect x="1012" y="408" width="356" height="52" rx="10" fill="#ffffff" stroke="#cbd5e1"/>
  <text x="1030" y="440" fill="#9ca3af" font-family="Arial, sans-serif" font-size="18">e.g. Production events</text>
  <text x="1012" y="514" fill="#374151" font-family="Arial, sans-serif" font-size="18" font-weight="700">Events</text>
  <rect x="1012" y="536" width="20" height="20" rx="4" fill="#2563eb"/>
  <text x="1046" y="552" fill="#4b5563" font-family="Arial, sans-serif" font-size="18">job.completed</text>
  <rect x="1012" y="574" width="20" height="20" rx="4" fill="#ffffff" stroke="#9ca3af"/>
  <text x="1046" y="590" fill="#4b5563" font-family="Arial, sans-serif" font-size="18">job.failed</text>
  <rect x="1012" y="630" width="356" height="52" rx="12" fill="#2563eb"/>
  <text x="1120" y="662" fill="#ffffff" font-family="Arial, sans-serif" font-size="20" font-weight="700">Register Webhook</text>
  <rect x="980" y="736" width="420" height="172" rx="18" fill="#ffffff" stroke="#d1d5db"/>
  <text x="1012" y="786" fill="#111827" font-family="Arial, sans-serif" font-size="24" font-weight="700">Documentation Note</text>
  <text x="1012" y="828" fill="#6b7280" font-family="Arial, sans-serif" font-size="16">This preview uses synthetic callback endpoints and</text>
  <text x="1012" y="852" fill="#6b7280" font-family="Arial, sans-serif" font-size="16">mirrors the SPA layout for docs and walkthroughs.</text>
</svg>
