<svg xmlns="http://www.w3.org/2000/svg" width="1440" height="980" viewBox="0 0 1440 980" role="img" aria-labelledby="title desc">
  <title id="title">Tenant dashboard portal preview</title>
  <desc id="desc">Synthetic render of the tenant dashboard page using fixture data from the SPA.</desc>
  <rect width="1440" height="980" fill="#f3f4f6"/>
  <rect x="0" y="0" width="260" height="980" fill="#0f172a"/>
  <text x="36" y="64" fill="#f8fafc" font-family="Arial, sans-serif" font-size="28" font-weight="700">tf-acore-aas</text>
  <text x="36" y="108" fill="#94a3b8" font-family="Arial, sans-serif" font-size="16">Tenant Portal</text>
  <rect x="24" y="156" width="212" height="52" rx="10" fill="#1d4ed8"/>
  <text x="44" y="188" fill="#ffffff" font-family="Arial, sans-serif" font-size="18" font-weight="700">Dashboard</text>
  <text x="36" y="252" fill="#cbd5e1" font-family="Arial, sans-serif" font-size="18">API Keys</text>
  <text x="36" y="296" fill="#cbd5e1" font-family="Arial, sans-serif" font-size="18">Members</text>
  <text x="36" y="340" fill="#cbd5e1" font-family="Arial, sans-serif" font-size="18">Webhooks</text>
  <text x="36" y="384" fill="#cbd5e1" font-family="Arial, sans-serif" font-size="18">Audit Export</text>
  <rect x="300" y="40" width="1100" height="88" rx="18" fill="#ffffff" stroke="#d1d5db"/>
  <text x="340" y="78" fill="#111827" font-family="Arial, sans-serif" font-size="34" font-weight="700">Dashboard</text>
  <text x="340" y="110" fill="#4b5563" font-family="Arial, sans-serif" font-size="18">Overview for Test Tenant (test-tenant)</text>
  <rect x="300" y="164" width="330" height="196" rx="18" fill="#ffffff" stroke="#d1d5db"/>
  <text x="330" y="214" fill="#6b7280" font-family="Arial, sans-serif" font-size="18" font-weight="700">REQUESTS TODAY</text>
  <text x="330" y="286" fill="#111827" font-family="Arial, sans-serif" font-size="64" font-weight="700">42</text>
  <text x="330" y="328" fill="#2563eb" font-family="Arial, sans-serif" font-size="18">View detailed usage -&gt;</text>
  <rect x="685" y="164" width="330" height="196" rx="18" fill="#ffffff" stroke="#d1d5db"/>
  <text x="715" y="214" fill="#6b7280" font-family="Arial, sans-serif" font-size="18" font-weight="700">BUDGET POSTURE</text>
  <text x="715" y="286" fill="#111827" font-family="Arial, sans-serif" font-size="56" font-weight="700">$150.50</text>
  <text x="715" y="328" fill="#6b7280" font-family="Arial, sans-serif" font-size="18">Remaining for current month</text>
  <rect x="1070" y="164" width="330" height="196" rx="18" fill="#ffffff" stroke="#d1d5db"/>
  <text x="1100" y="214" fill="#6b7280" font-family="Arial, sans-serif" font-size="18" font-weight="700">TIER / STATUS</text>
  <rect x="1100" y="248" width="110" height="40" rx="20" fill="#dbeafe"/>
  <text x="1122" y="274" fill="#1d4ed8" font-family="Arial, sans-serif" font-size="18" font-weight="700">standard</text>
  <rect x="1224" y="248" width="92" height="40" rx="20" fill="#dcfce7"/>
  <text x="1250" y="274" fill="#15803d" font-family="Arial, sans-serif" font-size="18" font-weight="700">active</text>
  <text x="1100" y="328" fill="#2563eb" font-family="Arial, sans-serif" font-size="18">Manage settings -&gt;</text>
  <rect x="300" y="402" width="540" height="456" rx="18" fill="#ffffff" stroke="#d1d5db"/>
  <rect x="300" y="402" width="540" height="72" rx="18" fill="#f9fafb" stroke="#d1d5db"/>
  <text x="330" y="446" fill="#111827" font-family="Arial, sans-serif" font-size="24" font-weight="700">Quick Actions</text>
  <rect x="330" y="516" width="216" height="108" rx="14" fill="#f8fafc" stroke="#cbd5e1"/>
  <text x="380" y="578" fill="#111827" font-family="Arial, sans-serif" font-size="22" font-weight="700">Rotate API Key</text>
  <rect x="574" y="516" width="216" height="108" rx="14" fill="#f8fafc" stroke="#cbd5e1"/>
  <text x="632" y="578" fill="#111827" font-family="Arial, sans-serif" font-size="22" font-weight="700">Invite User</text>
  <rect x="330" y="654" width="216" height="108" rx="14" fill="#f8fafc" stroke="#cbd5e1"/>
  <text x="388" y="716" fill="#111827" font-family="Arial, sans-serif" font-size="22" font-weight="700">Add Webhook</text>
  <rect x="574" y="654" width="216" height="108" rx="14" fill="#f8fafc" stroke="#cbd5e1"/>
  <text x="622" y="716" fill="#111827" font-family="Arial, sans-serif" font-size="22" font-weight="700">Export Audit</text>
  <rect x="860" y="402" width="540" height="456" rx="18" fill="#ffffff" stroke="#d1d5db"/>
  <rect x="860" y="402" width="540" height="72" rx="18" fill="#f9fafb" stroke="#d1d5db"/>
  <text x="890" y="446" fill="#111827" font-family="Arial, sans-serif" font-size="24" font-weight="700">Recent Sessions</text>
  <text x="1260" y="446" fill="#2563eb" font-family="Arial, sans-serif" font-size="18">View all</text>
  <text x="1018" y="656" fill="#6b7280" font-family="Arial, sans-serif" font-size="26" font-weight="700">No active sessions found.</text>
  <text x="300" y="924" fill="#6b7280" font-family="Arial, sans-serif" font-size="16">Synthetic documentation preview based on TenantDashboardPage fixture content.</text>
</svg>
